<mxfile host="app.diagrams.net" modified="2023-06-09T23:32:20.257Z" agent="Mozilla/5.0 (X11; Linux x86_64) AppleWebKit/537.36 (KHTML, like Gecko) Chrome/114.0.0.0 Safari/537.36" etag="voYkfd55-R1yoUL1ENai" version="21.3.8">
  <diagram name="Pagina-1" id="5M87x-feAHxGg1KMLkxO">
    <mxGraphModel dx="1674" dy="3109" grid="1" gridSize="10" guides="1" tooltips="1" connect="1" arrows="1" fold="1" page="1" pageScale="1" pageWidth="827" pageHeight="1169" math="0" shadow="0">
      <root>
        <mxCell id="0" />
        <mxCell id="1" parent="0" />
        <mxCell id="7dV71E5InsnMOGekvMBD-1" value="Start&amp;nbsp;&lt;br&gt;Event&amp;nbsp;" style="ellipse;whiteSpace=wrap;html=1;aspect=fixed;fillColor=#00CC00;" parent="1" vertex="1">
          <mxGeometry x="25" y="-1250" width="70" height="70" as="geometry" />
        </mxCell>
        <mxCell id="7dV71E5InsnMOGekvMBD-3" value="" style="edgeStyle=none;orthogonalLoop=1;jettySize=auto;html=1;rounded=0;entryX=0.675;entryY=0.141;entryDx=0;entryDy=0;entryPerimeter=0;" parent="1" target="7dV71E5InsnMOGekvMBD-4" edge="1">
          <mxGeometry width="100" relative="1" as="geometry">
            <mxPoint x="450" y="-1167.5" as="sourcePoint" />
            <mxPoint x="550" y="-1167.5" as="targetPoint" />
            <Array as="points" />
          </mxGeometry>
        </mxCell>
        <mxCell id="7dV71E5InsnMOGekvMBD-8" style="edgeStyle=orthogonalEdgeStyle;rounded=0;orthogonalLoop=1;jettySize=auto;html=1;" parent="1" source="7dV71E5InsnMOGekvMBD-4" edge="1">
          <mxGeometry relative="1" as="geometry">
            <mxPoint x="110" y="-910" as="targetPoint" />
            <Array as="points">
              <mxPoint x="245" y="-1010" />
              <mxPoint x="246" y="-1000" />
            </Array>
          </mxGeometry>
        </mxCell>
        <mxCell id="7dV71E5InsnMOGekvMBD-4" value="Als ik iemand voor het eerst ontmoet ben ik gespannen" style="rhombus;whiteSpace=wrap;html=1;" parent="1" vertex="1">
          <mxGeometry x="190" y="-1130" width="120" height="120" as="geometry" />
        </mxCell>
        <mxCell id="7dV71E5InsnMOGekvMBD-5" value="" style="edgeStyle=none;orthogonalLoop=1;jettySize=auto;html=1;rounded=0;" parent="1" edge="1">
          <mxGeometry width="100" relative="1" as="geometry">
            <mxPoint x="300" y="-1080" as="sourcePoint" />
            <mxPoint x="400" y="-1080" as="targetPoint" />
            <Array as="points" />
          </mxGeometry>
        </mxCell>
        <mxCell id="7dV71E5InsnMOGekvMBD-6" value="ja&amp;nbsp;" style="text;html=1;align=center;verticalAlign=middle;resizable=0;points=[];autosize=1;strokeColor=none;fillColor=none;" parent="1" vertex="1">
          <mxGeometry x="320" y="-1112" width="40" height="30" as="geometry" />
        </mxCell>
        <mxCell id="7dV71E5InsnMOGekvMBD-9" value="nee&amp;nbsp;" style="text;html=1;align=center;verticalAlign=middle;resizable=0;points=[];autosize=1;strokeColor=none;fillColor=none;" parent="1" vertex="1">
          <mxGeometry x="160" y="-1000" width="50" height="30" as="geometry" />
        </mxCell>
        <mxCell id="7dV71E5InsnMOGekvMBD-11" value="ik vind het vervelend om met mensen te praten die ik niet ken&lt;br&gt;5" style="whiteSpace=wrap;html=1;aspect=fixed;" parent="1" vertex="1">
          <mxGeometry x="410" y="-1112" width="102" height="102" as="geometry" />
        </mxCell>
        <mxCell id="7dV71E5InsnMOGekvMBD-12" value="" style="edgeStyle=none;orthogonalLoop=1;jettySize=auto;html=1;rounded=0;" parent="1" edge="1">
          <mxGeometry width="100" relative="1" as="geometry">
            <mxPoint x="490" y="-1072.38" as="sourcePoint" />
            <mxPoint x="590" y="-1072.38" as="targetPoint" />
            <Array as="points" />
          </mxGeometry>
        </mxCell>
        <mxCell id="7dV71E5InsnMOGekvMBD-13" value="ik heb er geen probleem mee om onbekenden in de ogen te kijken&amp;nbsp;&lt;br&gt;6" style="whiteSpace=wrap;html=1;aspect=fixed;" parent="1" vertex="1">
          <mxGeometry x="600" y="-1110" width="90" height="90" as="geometry" />
        </mxCell>
        <mxCell id="7dV71E5InsnMOGekvMBD-16" value="In gezelschap van anderen voel ik me ontspannen, ook als ik die mensen niet goed ken.&amp;nbsp;" style="whiteSpace=wrap;html=1;aspect=fixed;" parent="1" vertex="1">
          <mxGeometry x="720" y="-1020" width="100" height="100" as="geometry" />
        </mxCell>
        <mxCell id="7dV71E5InsnMOGekvMBD-17" value="" style="edgeStyle=none;orthogonalLoop=1;jettySize=auto;html=1;rounded=0;" parent="1" edge="1">
          <mxGeometry width="100" relative="1" as="geometry">
            <mxPoint x="690" y="-1050" as="sourcePoint" />
            <mxPoint x="750" y="-1030" as="targetPoint" />
            <Array as="points" />
          </mxGeometry>
        </mxCell>
        <mxCell id="7dV71E5InsnMOGekvMBD-18" value="Ik vraag me vaak af wat anderen van me vinden.&amp;nbsp;&lt;br&gt;(33)" style="rhombus;whiteSpace=wrap;html=1;" parent="1" vertex="1">
          <mxGeometry x="60" y="-907.5" width="100" height="100" as="geometry" />
        </mxCell>
        <mxCell id="7dV71E5InsnMOGekvMBD-19" value="" style="endArrow=classic;html=1;rounded=0;" parent="1" edge="1">
          <mxGeometry width="50" height="50" relative="1" as="geometry">
            <mxPoint x="165" y="-859.53" as="sourcePoint" />
            <mxPoint x="205" y="-860" as="targetPoint" />
          </mxGeometry>
        </mxCell>
        <mxCell id="7dV71E5InsnMOGekvMBD-20" value="ja&amp;nbsp;" style="text;html=1;align=center;verticalAlign=middle;resizable=0;points=[];autosize=1;strokeColor=none;fillColor=none;" parent="1" vertex="1">
          <mxGeometry x="175" y="-890" width="40" height="30" as="geometry" />
        </mxCell>
        <mxCell id="7dV71E5InsnMOGekvMBD-21" value="" style="endArrow=classic;html=1;rounded=0;" parent="1" edge="1">
          <mxGeometry width="50" height="50" relative="1" as="geometry">
            <mxPoint x="700" y="-990" as="sourcePoint" />
            <mxPoint x="130" y="-910" as="targetPoint" />
          </mxGeometry>
        </mxCell>
        <mxCell id="7dV71E5InsnMOGekvMBD-22" value="" style="endArrow=classic;html=1;rounded=0;" parent="1" edge="1">
          <mxGeometry width="50" height="50" relative="1" as="geometry">
            <mxPoint x="110" y="-805" as="sourcePoint" />
            <mxPoint x="190" y="-750" as="targetPoint" />
          </mxGeometry>
        </mxCell>
        <mxCell id="7dV71E5InsnMOGekvMBD-23" value="nee&amp;nbsp;" style="text;html=1;align=center;verticalAlign=middle;resizable=0;points=[];autosize=1;strokeColor=none;fillColor=none;" parent="1" vertex="1">
          <mxGeometry x="120" y="-780" width="50" height="30" as="geometry" />
        </mxCell>
        <mxCell id="7dV71E5InsnMOGekvMBD-24" value="Ik maak me weinig zorgen over de indruk die ik op anderen maak.&lt;br&gt;(11)&amp;nbsp;" style="whiteSpace=wrap;html=1;aspect=fixed;" parent="1" vertex="1">
          <mxGeometry x="210" y="-907.5" width="90" height="90" as="geometry" />
        </mxCell>
        <mxCell id="7dV71E5InsnMOGekvMBD-26" value="" style="endArrow=classic;html=1;rounded=0;" parent="1" edge="1">
          <mxGeometry width="50" height="50" relative="1" as="geometry">
            <mxPoint x="310" y="-858.03" as="sourcePoint" />
            <mxPoint x="350" y="-860" as="targetPoint" />
          </mxGeometry>
        </mxCell>
        <mxCell id="7dV71E5InsnMOGekvMBD-27" value="Ik denk vaak: &#39;Vinden ze me wel leuk?&#39;&lt;br&gt;(27)" style="whiteSpace=wrap;html=1;aspect=fixed;" parent="1" vertex="1">
          <mxGeometry x="350" y="-897.5" width="90" height="90" as="geometry" />
        </mxCell>
        <mxCell id="7dV71E5InsnMOGekvMBD-28" value="" style="endArrow=classic;html=1;rounded=0;" parent="1" edge="1">
          <mxGeometry width="50" height="50" relative="1" as="geometry">
            <mxPoint x="440" y="-857.88" as="sourcePoint" />
            <mxPoint x="470" y="-857.85" as="targetPoint" />
          </mxGeometry>
        </mxCell>
        <mxCell id="7dV71E5InsnMOGekvMBD-61" style="edgeStyle=orthogonalEdgeStyle;rounded=0;orthogonalLoop=1;jettySize=auto;html=1;exitX=0;exitY=1;exitDx=0;exitDy=0;entryX=0.5;entryY=0;entryDx=0;entryDy=0;" parent="1" source="7dV71E5InsnMOGekvMBD-29" target="7dV71E5InsnMOGekvMBD-56" edge="1">
          <mxGeometry relative="1" as="geometry" />
        </mxCell>
        <mxCell id="7dV71E5InsnMOGekvMBD-29" value="Het kan me niet zoveel schelen wat andere mensen van me vinden.&amp;nbsp;&lt;br&gt;(31)" style="whiteSpace=wrap;html=1;aspect=fixed;" parent="1" vertex="1">
          <mxGeometry x="324" y="-640" width="90" height="90" as="geometry" />
        </mxCell>
        <mxCell id="7dV71E5InsnMOGekvMBD-30" value="Ik ben bang dat mensen me saai of stom vinden.&amp;nbsp;&lt;br&gt;(35)" style="whiteSpace=wrap;html=1;aspect=fixed;" parent="1" vertex="1">
          <mxGeometry x="470" y="-897.5" width="90" height="90" as="geometry" />
        </mxCell>
        <mxCell id="7dV71E5InsnMOGekvMBD-31" value="Het kan me niet zoveel schelen hoe andere mensen over me denken.&amp;nbsp;&lt;br&gt;(36)" style="whiteSpace=wrap;html=1;aspect=fixed;" parent="1" vertex="1">
          <mxGeometry x="510" y="-640" width="90" height="90" as="geometry" />
        </mxCell>
        <mxCell id="7dV71E5InsnMOGekvMBD-32" value="Ik maak me zorgen dat mensen achter mijn rug om over me praten.&amp;nbsp;&lt;br&gt;(38)" style="whiteSpace=wrap;html=1;aspect=fixed;" parent="1" vertex="1">
          <mxGeometry x="730" y="-897.5" width="90" height="90" as="geometry" />
        </mxCell>
        <mxCell id="7dV71E5InsnMOGekvMBD-33" value="Ik maak me zorgen dat mensen negatief over me denken&amp;nbsp;&lt;br&gt;(40)" style="whiteSpace=wrap;html=1;aspect=fixed;" parent="1" vertex="1">
          <mxGeometry x="600" y="-897.5" width="90" height="90" as="geometry" />
        </mxCell>
        <mxCell id="7dV71E5InsnMOGekvMBD-60" style="edgeStyle=orthogonalEdgeStyle;rounded=0;orthogonalLoop=1;jettySize=auto;html=1;exitX=0;exitY=1;exitDx=0;exitDy=0;entryX=0.733;entryY=0.179;entryDx=0;entryDy=0;entryPerimeter=0;" parent="1" source="7dV71E5InsnMOGekvMBD-34" target="7dV71E5InsnMOGekvMBD-56" edge="1">
          <mxGeometry relative="1" as="geometry">
            <mxPoint x="160" y="-480" as="targetPoint" />
          </mxGeometry>
        </mxCell>
        <mxCell id="7dV71E5InsnMOGekvMBD-34" value="Niemand zal me dom vinden als ik slecht presteer.&amp;nbsp;&lt;br&gt;(43)" style="whiteSpace=wrap;html=1;aspect=fixed;" parent="1" vertex="1">
          <mxGeometry x="730" y="-584" width="90" height="90" as="geometry" />
        </mxCell>
        <mxCell id="7dV71E5InsnMOGekvMBD-35" value="Als andere mensen me niet mogen, is dat hun probleem.&amp;nbsp;&lt;br&gt;(45)" style="whiteSpace=wrap;html=1;aspect=fixed;" parent="1" vertex="1">
          <mxGeometry x="500" y="-752" width="90" height="90" as="geometry" />
        </mxCell>
        <mxCell id="7dV71E5InsnMOGekvMBD-36" value="Ik trek me weinig aan van wat andere van me vinden.&lt;br&gt;(47)&amp;nbsp;" style="whiteSpace=wrap;html=1;aspect=fixed;" parent="1" vertex="1">
          <mxGeometry x="324" y="-752" width="90" height="90" as="geometry" />
        </mxCell>
        <mxCell id="7dV71E5InsnMOGekvMBD-37" value="Als iemand kritiek op me heeft, heb ik het gevoel dat ik heb gefaald.&lt;br&gt;(4)" style="whiteSpace=wrap;html=1;aspect=fixed;" parent="1" vertex="1">
          <mxGeometry x="730" y="-770" width="90" height="90" as="geometry" />
        </mxCell>
        <mxCell id="7dV71E5InsnMOGekvMBD-41" value="" style="edgeStyle=none;orthogonalLoop=1;jettySize=auto;html=1;rounded=0;" parent="1" edge="1">
          <mxGeometry width="100" relative="1" as="geometry">
            <mxPoint x="280" y="-688" as="sourcePoint" />
            <mxPoint x="310" y="-687" as="targetPoint" />
            <Array as="points" />
          </mxGeometry>
        </mxCell>
        <mxCell id="7dV71E5InsnMOGekvMBD-43" value="" style="edgeStyle=none;orthogonalLoop=1;jettySize=auto;html=1;rounded=0;exitX=0.5;exitY=1;exitDx=0;exitDy=0;entryX=0.413;entryY=-0.02;entryDx=0;entryDy=0;entryPerimeter=0;" parent="1" source="7dV71E5InsnMOGekvMBD-35" target="7dV71E5InsnMOGekvMBD-31" edge="1">
          <mxGeometry width="100" relative="1" as="geometry">
            <mxPoint x="544.57" y="-650" as="sourcePoint" />
            <mxPoint x="544.57" y="-630" as="targetPoint" />
            <Array as="points" />
          </mxGeometry>
        </mxCell>
        <mxCell id="7dV71E5InsnMOGekvMBD-44" value="" style="edgeStyle=none;orthogonalLoop=1;jettySize=auto;html=1;rounded=0;" parent="1" edge="1">
          <mxGeometry width="100" relative="1" as="geometry">
            <mxPoint x="500" y="-595" as="sourcePoint" />
            <mxPoint x="440" y="-595.43" as="targetPoint" />
            <Array as="points" />
          </mxGeometry>
        </mxCell>
        <mxCell id="7dV71E5InsnMOGekvMBD-45" value="" style="edgeStyle=none;orthogonalLoop=1;jettySize=auto;html=1;rounded=0;" parent="1" edge="1">
          <mxGeometry width="100" relative="1" as="geometry">
            <mxPoint x="560" y="-850" as="sourcePoint" />
            <mxPoint x="590" y="-850" as="targetPoint" />
            <Array as="points" />
          </mxGeometry>
        </mxCell>
        <mxCell id="7dV71E5InsnMOGekvMBD-46" value="" style="edgeStyle=none;orthogonalLoop=1;jettySize=auto;html=1;rounded=0;" parent="1" edge="1">
          <mxGeometry width="100" relative="1" as="geometry">
            <mxPoint x="690" y="-852.77" as="sourcePoint" />
            <mxPoint x="720" y="-852.77" as="targetPoint" />
            <Array as="points" />
          </mxGeometry>
        </mxCell>
        <mxCell id="7dV71E5InsnMOGekvMBD-47" value="" style="edgeStyle=none;orthogonalLoop=1;jettySize=auto;html=1;rounded=0;" parent="1" edge="1">
          <mxGeometry width="100" relative="1" as="geometry">
            <mxPoint x="774.73" y="-807.5" as="sourcePoint" />
            <mxPoint x="774.73" y="-777.5" as="targetPoint" />
            <Array as="points" />
          </mxGeometry>
        </mxCell>
        <mxCell id="7dV71E5InsnMOGekvMBD-48" value="" style="edgeStyle=none;orthogonalLoop=1;jettySize=auto;html=1;rounded=0;" parent="1" edge="1">
          <mxGeometry width="100" relative="1" as="geometry">
            <mxPoint x="774.73" y="-680" as="sourcePoint" />
            <mxPoint x="775" y="-600" as="targetPoint" />
            <Array as="points" />
          </mxGeometry>
        </mxCell>
        <mxCell id="7dV71E5InsnMOGekvMBD-50" value="Het kan me niet &lt;br&gt;zoveel schelen wat andere mensen van me vinden.&amp;nbsp;&lt;br style=&quot;border-color: var(--border-color);&quot;&gt;(31)" style="rhombus;whiteSpace=wrap;html=1;" parent="1" vertex="1">
          <mxGeometry x="140" y="-765" width="130" height="155" as="geometry" />
        </mxCell>
        <mxCell id="7dV71E5InsnMOGekvMBD-52" value="" style="endArrow=classic;html=1;rounded=0;" parent="1" edge="1">
          <mxGeometry width="50" height="50" relative="1" as="geometry">
            <mxPoint x="250" y="-720" as="sourcePoint" />
            <mxPoint x="350" y="-800" as="targetPoint" />
          </mxGeometry>
        </mxCell>
        <mxCell id="7dV71E5InsnMOGekvMBD-53" value="oneens" style="text;html=1;align=center;verticalAlign=middle;resizable=0;points=[];autosize=1;strokeColor=none;fillColor=none;" parent="1" vertex="1">
          <mxGeometry x="250" y="-780" width="60" height="30" as="geometry" />
        </mxCell>
        <mxCell id="7dV71E5InsnMOGekvMBD-54" value="agree" style="text;html=1;align=center;verticalAlign=middle;resizable=0;points=[];autosize=1;strokeColor=none;fillColor=none;" parent="1" vertex="1">
          <mxGeometry x="265" y="-692" width="50" height="30" as="geometry" />
        </mxCell>
        <mxCell id="7dV71E5InsnMOGekvMBD-55" value="" style="edgeStyle=none;orthogonalLoop=1;jettySize=auto;html=1;rounded=0;" parent="1" edge="1">
          <mxGeometry width="100" relative="1" as="geometry">
            <mxPoint x="440" y="-695.34" as="sourcePoint" />
            <mxPoint x="480" y="-695.34" as="targetPoint" />
            <Array as="points" />
          </mxGeometry>
        </mxCell>
        <mxCell id="7dV71E5InsnMOGekvMBD-56" value="In het contact met&lt;br&gt;&amp;nbsp;andere mensen voel &lt;br&gt;ik me zelfverzekerd.&amp;nbsp;&lt;br style=&quot;border-color: var(--border-color);&quot;&gt;(51)" style="rhombus;whiteSpace=wrap;html=1;" parent="1" vertex="1">
          <mxGeometry x="50" y="-475" width="150" height="140" as="geometry" />
        </mxCell>
        <mxCell id="7dV71E5InsnMOGekvMBD-63" value="Ik bedenk vaak smoesjes om niet naar sociale bijeenkomsten te hoeven.&lt;br&gt;(6)" style="whiteSpace=wrap;html=1;aspect=fixed;" parent="1" vertex="1">
          <mxGeometry x="560" y="-450" width="90" height="90" as="geometry" />
        </mxCell>
        <mxCell id="7dV71E5InsnMOGekvMBD-64" value="Als ik merk dat iemand naar me kijkt wordt ik zenuwachtig.&lt;br&gt;(15)&amp;nbsp;" style="whiteSpace=wrap;html=1;aspect=fixed;" parent="1" vertex="1">
          <mxGeometry x="280" y="-450" width="90" height="90" as="geometry" />
        </mxCell>
        <mxCell id="7dV71E5InsnMOGekvMBD-65" value="Als ik het ergens niet mee eens ben, zeg ik dat.&amp;nbsp;&lt;br&gt;(17)" style="whiteSpace=wrap;html=1;aspect=fixed;" parent="1" vertex="1">
          <mxGeometry x="480" y="-200" width="90" height="90" as="geometry" />
        </mxCell>
        <mxCell id="7dV71E5InsnMOGekvMBD-66" value="In gezelschap ben ik bang dat ik ga blozen.&lt;br&gt;(29)&amp;nbsp;" style="whiteSpace=wrap;html=1;aspect=fixed;" parent="1" vertex="1">
          <mxGeometry x="420" y="-450" width="90" height="90" as="geometry" />
        </mxCell>
        <mxCell id="7dV71E5InsnMOGekvMBD-67" value="Ik vind het geen probleem om in de klas een vraag te stellen.&amp;nbsp;&lt;br&gt;(34)" style="whiteSpace=wrap;html=1;aspect=fixed;" parent="1" vertex="1">
          <mxGeometry x="260" y="-200" width="90" height="90" as="geometry" />
        </mxCell>
        <mxCell id="7dV71E5InsnMOGekvMBD-69" value="Als iemand me een complimentje maakt, voel ik me ongemakkelijk&lt;br&gt;(53)." style="whiteSpace=wrap;html=1;aspect=fixed;" parent="1" vertex="1">
          <mxGeometry x="710" y="-450" width="100" height="100" as="geometry" />
        </mxCell>
        <mxCell id="7dV71E5InsnMOGekvMBD-70" value="Ik heb er een hekel aan om het middelpunt van de belangstelling te staan.&amp;nbsp;&lt;br&gt;(59)" style="whiteSpace=wrap;html=1;aspect=fixed;" parent="1" vertex="1">
          <mxGeometry x="710" y="-310" width="100" height="100" as="geometry" />
        </mxCell>
        <mxCell id="7dV71E5InsnMOGekvMBD-71" value="" style="endArrow=classic;html=1;rounded=0;" parent="1" edge="1">
          <mxGeometry width="50" height="50" relative="1" as="geometry">
            <mxPoint x="200" y="-405.53" as="sourcePoint" />
            <mxPoint x="270" y="-405.53" as="targetPoint" />
          </mxGeometry>
        </mxCell>
        <mxCell id="7dV71E5InsnMOGekvMBD-72" value="nee" style="text;html=1;align=center;verticalAlign=middle;resizable=0;points=[];autosize=1;strokeColor=none;fillColor=none;" parent="1" vertex="1">
          <mxGeometry x="210" y="-442" width="40" height="30" as="geometry" />
        </mxCell>
        <mxCell id="7dV71E5InsnMOGekvMBD-73" value="" style="endArrow=classic;html=1;rounded=0;" parent="1" edge="1">
          <mxGeometry width="50" height="50" relative="1" as="geometry">
            <mxPoint x="370" y="-402" as="sourcePoint" />
            <mxPoint x="410" y="-402" as="targetPoint" />
          </mxGeometry>
        </mxCell>
        <mxCell id="7dV71E5InsnMOGekvMBD-75" value="" style="edgeStyle=none;orthogonalLoop=1;jettySize=auto;html=1;rounded=0;" parent="1" edge="1">
          <mxGeometry width="100" relative="1" as="geometry">
            <mxPoint x="520" y="-400" as="sourcePoint" />
            <mxPoint x="550" y="-400" as="targetPoint" />
            <Array as="points" />
          </mxGeometry>
        </mxCell>
        <mxCell id="7dV71E5InsnMOGekvMBD-76" value="" style="endArrow=classic;html=1;rounded=0;" parent="1" edge="1">
          <mxGeometry width="50" height="50" relative="1" as="geometry">
            <mxPoint x="660" y="-400.23" as="sourcePoint" />
            <mxPoint x="700" y="-400.23" as="targetPoint" />
          </mxGeometry>
        </mxCell>
        <mxCell id="7dV71E5InsnMOGekvMBD-77" value="" style="edgeStyle=none;orthogonalLoop=1;jettySize=auto;html=1;rounded=0;" parent="1" edge="1">
          <mxGeometry width="100" relative="1" as="geometry">
            <mxPoint x="759.77" y="-350" as="sourcePoint" />
            <mxPoint x="759.77" y="-320" as="targetPoint" />
            <Array as="points" />
          </mxGeometry>
        </mxCell>
        <mxCell id="7dV71E5InsnMOGekvMBD-78" value="" style="endArrow=classic;html=1;rounded=0;" parent="1" edge="1">
          <mxGeometry width="50" height="50" relative="1" as="geometry">
            <mxPoint x="124.51999999999998" y="-330" as="sourcePoint" />
            <mxPoint x="124.51999999999998" y="-280" as="targetPoint" />
          </mxGeometry>
        </mxCell>
        <mxCell id="7dV71E5InsnMOGekvMBD-79" value="ja" style="text;html=1;align=center;verticalAlign=middle;resizable=0;points=[];autosize=1;strokeColor=none;fillColor=none;" parent="1" vertex="1">
          <mxGeometry x="95" y="-330" width="30" height="30" as="geometry" />
        </mxCell>
        <mxCell id="7dV71E5InsnMOGekvMBD-80" value="Ik heb er geen &lt;br&gt;probleem mee om&lt;br&gt;&amp;nbsp;een praatje te houden voor een groep.&amp;nbsp;&lt;br style=&quot;border-color: var(--border-color);&quot;&gt;(2)" style="rhombus;whiteSpace=wrap;html=1;" parent="1" vertex="1">
          <mxGeometry x="55" y="-270" width="140" height="130" as="geometry" />
        </mxCell>
        <mxCell id="7dV71E5InsnMOGekvMBD-81" value="" style="endArrow=classic;html=1;rounded=0;" parent="1" edge="1">
          <mxGeometry width="50" height="50" relative="1" as="geometry">
            <mxPoint x="175" y="-180" as="sourcePoint" />
            <mxPoint x="250" y="-150" as="targetPoint" />
          </mxGeometry>
        </mxCell>
        <mxCell id="7dV71E5InsnMOGekvMBD-82" value="" style="endArrow=classic;html=1;rounded=0;" parent="1" edge="1">
          <mxGeometry width="50" height="50" relative="1" as="geometry">
            <mxPoint x="165" y="-240" as="sourcePoint" />
            <mxPoint x="290" y="-350" as="targetPoint" />
          </mxGeometry>
        </mxCell>
        <mxCell id="7dV71E5InsnMOGekvMBD-83" value="eens" style="text;html=1;align=center;verticalAlign=middle;resizable=0;points=[];autosize=1;strokeColor=none;fillColor=none;" parent="1" vertex="1">
          <mxGeometry x="170" y="-160" width="50" height="30" as="geometry" />
        </mxCell>
        <mxCell id="7dV71E5InsnMOGekvMBD-84" value="oneens" style="text;html=1;align=center;verticalAlign=middle;resizable=0;points=[];autosize=1;strokeColor=none;fillColor=none;" parent="1" vertex="1">
          <mxGeometry x="165" y="-320" width="60" height="30" as="geometry" />
        </mxCell>
        <mxCell id="7dV71E5InsnMOGekvMBD-85" value="" style="endArrow=classic;html=1;rounded=0;" parent="1" edge="1">
          <mxGeometry width="50" height="50" relative="1" as="geometry">
            <mxPoint x="360" y="-150" as="sourcePoint" />
            <mxPoint x="460" y="-150" as="targetPoint" />
          </mxGeometry>
        </mxCell>
        <mxCell id="7dV71E5InsnMOGekvMBD-86" value="" style="endArrow=classic;html=1;rounded=0;" parent="1" edge="1">
          <mxGeometry width="50" height="50" relative="1" as="geometry">
            <mxPoint x="700" y="-210" as="sourcePoint" />
            <mxPoint x="580" y="-160" as="targetPoint" />
          </mxGeometry>
        </mxCell>
        <mxCell id="7dV71E5InsnMOGekvMBD-87" value="ik heb &lt;br&gt;weinig &lt;br&gt;last van studiestress.&lt;br style=&quot;border-color: var(--border-color);&quot;&gt;(28)" style="rhombus;whiteSpace=wrap;html=1;" parent="1" vertex="1">
          <mxGeometry x="80" y="-10" width="100" height="110" as="geometry" />
        </mxCell>
        <mxCell id="7dV71E5InsnMOGekvMBD-88" value="" style="endArrow=classic;html=1;rounded=0;entryX=0.5;entryY=0;entryDx=0;entryDy=0;" parent="1" target="7dV71E5InsnMOGekvMBD-87" edge="1">
          <mxGeometry width="50" height="50" relative="1" as="geometry">
            <mxPoint x="470" y="-110" as="sourcePoint" />
            <mxPoint x="374" y="-90" as="targetPoint" />
          </mxGeometry>
        </mxCell>
        <mxCell id="7dV71E5InsnMOGekvMBD-89" value="Op de dag van een examen vind ik het net zo leuk om naar school te gaan als anders&amp;nbsp;&lt;br&gt;(1)" style="whiteSpace=wrap;html=1;aspect=fixed;" parent="1" vertex="1">
          <mxGeometry x="265" y="10" width="100" height="100" as="geometry" />
        </mxCell>
        <mxCell id="7dV71E5InsnMOGekvMBD-90" value="De nacht voor een examen of toets slaap ik net zo goed als anders.&amp;nbsp;&lt;br&gt;(16)" style="whiteSpace=wrap;html=1;aspect=fixed;" parent="1" vertex="1">
          <mxGeometry x="420" y="15" width="90" height="90" as="geometry" />
        </mxCell>
        <mxCell id="7dV71E5InsnMOGekvMBD-93" value="Voor een examen ben ik zó zenuwachtig dat ik hoofdpijn of buikpijn heb of tril&amp;nbsp;&lt;br&gt;(32)" style="whiteSpace=wrap;html=1;aspect=fixed;" parent="1" vertex="1">
          <mxGeometry x="590" y="320" width="100" height="100" as="geometry" />
        </mxCell>
        <mxCell id="7dV71E5InsnMOGekvMBD-95" value="Vlak voor een examen ben ik vaak zenuwachtig.&lt;br&gt;(42)" style="whiteSpace=wrap;html=1;aspect=fixed;" parent="1" vertex="1">
          <mxGeometry x="560" y="20" width="85" height="85" as="geometry" />
        </mxCell>
        <mxCell id="7dV71E5InsnMOGekvMBD-96" value="Voor een &lt;br&gt;examen maak &lt;br&gt;ik me weinig zorgen.&amp;nbsp;&lt;br style=&quot;border-color: var(--border-color);&quot;&gt;(18)" style="rhombus;whiteSpace=wrap;html=1;" parent="1" vertex="1">
          <mxGeometry x="140" y="140" width="110" height="110" as="geometry" />
        </mxCell>
        <mxCell id="7dV71E5InsnMOGekvMBD-97" value="" style="endArrow=classic;html=1;rounded=0;" parent="1" edge="1">
          <mxGeometry width="50" height="50" relative="1" as="geometry">
            <mxPoint x="175" y="50" as="sourcePoint" />
            <mxPoint x="240" y="50" as="targetPoint" />
          </mxGeometry>
        </mxCell>
        <mxCell id="7dV71E5InsnMOGekvMBD-98" value="" style="endArrow=classic;html=1;rounded=0;" parent="1" target="7dV71E5InsnMOGekvMBD-96" edge="1">
          <mxGeometry width="50" height="50" relative="1" as="geometry">
            <mxPoint x="130" y="110" as="sourcePoint" />
            <mxPoint x="180" y="60" as="targetPoint" />
          </mxGeometry>
        </mxCell>
        <mxCell id="7dV71E5InsnMOGekvMBD-99" value="nee" style="text;html=1;align=center;verticalAlign=middle;resizable=0;points=[];autosize=1;strokeColor=none;fillColor=none;" parent="1" vertex="1">
          <mxGeometry x="185" y="15" width="40" height="30" as="geometry" />
        </mxCell>
        <mxCell id="7dV71E5InsnMOGekvMBD-100" value="ja" style="text;html=1;align=center;verticalAlign=middle;resizable=0;points=[];autosize=1;strokeColor=none;fillColor=none;" parent="1" vertex="1">
          <mxGeometry x="120" y="128" width="30" height="30" as="geometry" />
        </mxCell>
        <mxCell id="7dV71E5InsnMOGekvMBD-101" value="" style="endArrow=classic;html=1;rounded=0;" parent="1" edge="1">
          <mxGeometry width="50" height="50" relative="1" as="geometry">
            <mxPoint x="250" y="180" as="sourcePoint" />
            <mxPoint x="300" y="120" as="targetPoint" />
          </mxGeometry>
        </mxCell>
        <mxCell id="7dV71E5InsnMOGekvMBD-102" value="" style="endArrow=classic;html=1;rounded=0;" parent="1" edge="1">
          <mxGeometry width="50" height="50" relative="1" as="geometry">
            <mxPoint x="373.5" y="62.209999999999994" as="sourcePoint" />
            <mxPoint x="413.5" y="62.209999999999994" as="targetPoint" />
          </mxGeometry>
        </mxCell>
        <mxCell id="7dV71E5InsnMOGekvMBD-103" value="&lt;br&gt;&lt;span style=&quot;color: rgb(0, 0, 0); font-family: Helvetica; font-size: 12px; font-style: normal; font-variant-ligatures: normal; font-variant-caps: normal; font-weight: 400; letter-spacing: normal; orphans: 2; text-align: center; text-indent: 0px; text-transform: none; widows: 2; word-spacing: 0px; -webkit-text-stroke-width: 0px; background-color: rgb(251, 251, 251); text-decoration-thickness: initial; text-decoration-style: initial; text-decoration-color: initial; float: none; display: inline !important;&quot;&gt;Vlak voor&lt;br&gt;&amp;nbsp;een examen &lt;br&gt;voel ik me&lt;br&gt;&amp;nbsp;vaak ziek.&amp;nbsp;&lt;/span&gt;&lt;br style=&quot;border-color: var(--border-color); color: rgb(0, 0, 0); font-family: Helvetica; font-size: 12px; font-style: normal; font-variant-ligatures: normal; font-variant-caps: normal; font-weight: 400; letter-spacing: normal; orphans: 2; text-align: center; text-indent: 0px; text-transform: none; widows: 2; word-spacing: 0px; -webkit-text-stroke-width: 0px; background-color: rgb(251, 251, 251); text-decoration-thickness: initial; text-decoration-style: initial; text-decoration-color: initial;&quot;&gt;&lt;span style=&quot;color: rgb(0, 0, 0); font-family: Helvetica; font-size: 12px; font-style: normal; font-variant-ligatures: normal; font-variant-caps: normal; font-weight: 400; letter-spacing: normal; orphans: 2; text-align: center; text-indent: 0px; text-transform: none; widows: 2; word-spacing: 0px; -webkit-text-stroke-width: 0px; background-color: rgb(251, 251, 251); text-decoration-thickness: initial; text-decoration-style: initial; text-decoration-color: initial; float: none; display: inline !important;&quot;&gt;(37)&lt;/span&gt;&lt;br&gt;" style="rhombus;whiteSpace=wrap;html=1;" parent="1" vertex="1">
          <mxGeometry x="595" y="145" width="100" height="105" as="geometry" />
        </mxCell>
        <mxCell id="7dV71E5InsnMOGekvMBD-104" value="" style="endArrow=classic;html=1;rounded=0;" parent="1" edge="1">
          <mxGeometry width="50" height="50" relative="1" as="geometry">
            <mxPoint x="520" y="70" as="sourcePoint" />
            <mxPoint x="550" y="70" as="targetPoint" />
          </mxGeometry>
        </mxCell>
        <mxCell id="7dV71E5InsnMOGekvMBD-105" value="" style="endArrow=classic;html=1;rounded=0;" parent="1" edge="1">
          <mxGeometry width="50" height="50" relative="1" as="geometry">
            <mxPoint x="640" y="105" as="sourcePoint" />
            <mxPoint x="640" y="140" as="targetPoint" />
          </mxGeometry>
        </mxCell>
        <mxCell id="7dV71E5InsnMOGekvMBD-106" value="" style="endArrow=classic;html=1;rounded=0;" parent="1" edge="1">
          <mxGeometry width="50" height="50" relative="1" as="geometry">
            <mxPoint x="640" y="250" as="sourcePoint" />
            <mxPoint x="640" y="310" as="targetPoint" />
          </mxGeometry>
        </mxCell>
        <mxCell id="7dV71E5InsnMOGekvMBD-107" value="" style="endArrow=classic;html=1;rounded=0;" parent="1" source="7dV71E5InsnMOGekvMBD-96" edge="1">
          <mxGeometry width="50" height="50" relative="1" as="geometry">
            <mxPoint x="195" y="260" as="sourcePoint" />
            <mxPoint x="120" y="330" as="targetPoint" />
          </mxGeometry>
        </mxCell>
        <mxCell id="7dV71E5InsnMOGekvMBD-108" value="" style="endArrow=classic;html=1;rounded=0;" parent="1" edge="1">
          <mxGeometry width="50" height="50" relative="1" as="geometry">
            <mxPoint x="590" y="200" as="sourcePoint" />
            <mxPoint x="150" y="330" as="targetPoint" />
          </mxGeometry>
        </mxCell>
        <mxCell id="7dV71E5InsnMOGekvMBD-109" value="Tijdens het &lt;br&gt;maken &lt;br&gt;van een examen &lt;br&gt;ben ik bang dat ik het&lt;br&gt;&amp;nbsp;niet kan.&lt;br style=&quot;border-color: var(--border-color);&quot;&gt;(3)" style="rhombus;whiteSpace=wrap;html=1;" parent="1" vertex="1">
          <mxGeometry x="70" y="340" width="140" height="130" as="geometry" />
        </mxCell>
        <mxCell id="7dV71E5InsnMOGekvMBD-110" value="" style="endArrow=classic;html=1;rounded=0;" parent="1" edge="1">
          <mxGeometry width="50" height="50" relative="1" as="geometry">
            <mxPoint x="577.5" y="370" as="sourcePoint" />
            <mxPoint x="160" y="340" as="targetPoint" />
          </mxGeometry>
        </mxCell>
        <mxCell id="7dV71E5InsnMOGekvMBD-111" value="nee" style="text;html=1;align=center;verticalAlign=middle;resizable=0;points=[];autosize=1;strokeColor=none;fillColor=none;" parent="1" vertex="1">
          <mxGeometry x="265" y="145" width="40" height="30" as="geometry" />
        </mxCell>
        <mxCell id="7dV71E5InsnMOGekvMBD-112" value="ja" style="text;html=1;align=center;verticalAlign=middle;resizable=0;points=[];autosize=1;strokeColor=none;fillColor=none;" parent="1" vertex="1">
          <mxGeometry x="125" y="250" width="30" height="30" as="geometry" />
        </mxCell>
        <mxCell id="7dV71E5InsnMOGekvMBD-113" value="nee" style="text;html=1;align=center;verticalAlign=middle;resizable=0;points=[];autosize=1;strokeColor=none;fillColor=none;" parent="1" vertex="1">
          <mxGeometry x="525" y="180" width="40" height="30" as="geometry" />
        </mxCell>
        <mxCell id="7dV71E5InsnMOGekvMBD-114" value="ja" style="text;html=1;align=center;verticalAlign=middle;resizable=0;points=[];autosize=1;strokeColor=none;fillColor=none;" parent="1" vertex="1">
          <mxGeometry x="615" y="258" width="30" height="30" as="geometry" />
        </mxCell>
        <mxCell id="7dV71E5InsnMOGekvMBD-117" value="Ik lever opdrachten vaak op het laatste moment in omdat ik er maar aan blijf sleutelen.&lt;br&gt;(12)&amp;nbsp;" style="whiteSpace=wrap;html=1;aspect=fixed;" parent="1" vertex="1">
          <mxGeometry x="422.5" y="660" width="102.5" height="102.5" as="geometry" />
        </mxCell>
        <mxCell id="7dV71E5InsnMOGekvMBD-118" value="Ik lever opdrachten vaak op het laatste moment in omdat ik bang ben dat ze niet goed genoeg zijn.&lt;br&gt;(44)" style="whiteSpace=wrap;html=1;aspect=fixed;" parent="1" vertex="1">
          <mxGeometry x="290" y="390" width="110" height="110" as="geometry" />
        </mxCell>
        <mxCell id="7dV71E5InsnMOGekvMBD-119" value="Contoleer ik, aan het eind van een examen, mijn antwoorden nog een keer dan raak ik in de war.&amp;nbsp;&lt;br&gt;(60)" style="whiteSpace=wrap;html=1;aspect=fixed;" parent="1" vertex="1">
          <mxGeometry x="480" y="430" width="110" height="110" as="geometry" />
        </mxCell>
        <mxCell id="7dV71E5InsnMOGekvMBD-121" value="Bij examens of proefwerken wil ik het vaak zó goed doen dat ik niet op tijd klaar ben.&lt;br style=&quot;border-color: var(--border-color);&quot;&gt;(7)" style="rhombus;whiteSpace=wrap;html=1;" parent="1" vertex="1">
          <mxGeometry x="150" y="550" width="140" height="140" as="geometry" />
        </mxCell>
        <mxCell id="7dV71E5InsnMOGekvMBD-122" value="" style="endArrow=classic;html=1;rounded=0;" parent="1" edge="1">
          <mxGeometry width="50" height="50" relative="1" as="geometry">
            <mxPoint x="210" y="430" as="sourcePoint" />
            <mxPoint x="270" y="450" as="targetPoint" />
          </mxGeometry>
        </mxCell>
        <mxCell id="7dV71E5InsnMOGekvMBD-123" value="" style="endArrow=classic;html=1;rounded=0;" parent="1" target="7dV71E5InsnMOGekvMBD-121" edge="1">
          <mxGeometry width="50" height="50" relative="1" as="geometry">
            <mxPoint x="145" y="470" as="sourcePoint" />
            <mxPoint x="195" y="420" as="targetPoint" />
          </mxGeometry>
        </mxCell>
        <mxCell id="7dV71E5InsnMOGekvMBD-124" value="" style="endArrow=classic;html=1;rounded=0;" parent="1" edge="1">
          <mxGeometry width="50" height="50" relative="1" as="geometry">
            <mxPoint x="410" y="470" as="sourcePoint" />
            <mxPoint x="460" y="490" as="targetPoint" />
          </mxGeometry>
        </mxCell>
        <mxCell id="7dV71E5InsnMOGekvMBD-125" value="" style="endArrow=classic;html=1;rounded=0;" parent="1" edge="1">
          <mxGeometry width="50" height="50" relative="1" as="geometry">
            <mxPoint x="290" y="620" as="sourcePoint" />
            <mxPoint x="400" y="680" as="targetPoint" />
          </mxGeometry>
        </mxCell>
        <mxCell id="7dV71E5InsnMOGekvMBD-126" value="" style="endArrow=classic;html=1;rounded=0;" parent="1" target="7dV71E5InsnMOGekvMBD-121" edge="1">
          <mxGeometry width="50" height="50" relative="1" as="geometry">
            <mxPoint x="470" y="510" as="sourcePoint" />
            <mxPoint x="240" y="540" as="targetPoint" />
          </mxGeometry>
        </mxCell>
        <mxCell id="7dV71E5InsnMOGekvMBD-127" value="" style="endArrow=classic;html=1;rounded=0;" parent="1" edge="1">
          <mxGeometry width="50" height="50" relative="1" as="geometry">
            <mxPoint x="217.5" y="692.5" as="sourcePoint" />
            <mxPoint x="140" y="780" as="targetPoint" />
          </mxGeometry>
        </mxCell>
        <mxCell id="7dV71E5InsnMOGekvMBD-128" value="Ik &lt;br&gt;voel me &lt;br&gt;onder druk &lt;br&gt;staan om te presteren.&amp;nbsp;&lt;br style=&quot;border-color: var(--border-color);&quot;&gt;(21)" style="rhombus;whiteSpace=wrap;html=1;" parent="1" vertex="1">
          <mxGeometry x="95" y="790" width="105" height="110" as="geometry" />
        </mxCell>
        <mxCell id="7dV71E5InsnMOGekvMBD-129" value="" style="endArrow=classic;html=1;rounded=0;" parent="1" edge="1">
          <mxGeometry width="50" height="50" relative="1" as="geometry">
            <mxPoint x="390" y="762.5" as="sourcePoint" />
            <mxPoint x="160" y="780" as="targetPoint" />
          </mxGeometry>
        </mxCell>
        <mxCell id="7dV71E5InsnMOGekvMBD-130" value="ja" style="text;html=1;align=center;verticalAlign=middle;resizable=0;points=[];autosize=1;strokeColor=none;fillColor=none;" parent="1" vertex="1">
          <mxGeometry x="225" y="410" width="30" height="30" as="geometry" />
        </mxCell>
        <mxCell id="7dV71E5InsnMOGekvMBD-131" value="nee" style="text;html=1;align=center;verticalAlign=middle;resizable=0;points=[];autosize=1;strokeColor=none;fillColor=none;" parent="1" vertex="1">
          <mxGeometry x="110" y="498" width="40" height="30" as="geometry" />
        </mxCell>
        <mxCell id="7dV71E5InsnMOGekvMBD-132" value="ja&amp;nbsp;" style="text;html=1;align=center;verticalAlign=middle;resizable=0;points=[];autosize=1;strokeColor=none;fillColor=none;" parent="1" vertex="1">
          <mxGeometry x="310" y="608" width="40" height="30" as="geometry" />
        </mxCell>
        <mxCell id="7dV71E5InsnMOGekvMBD-133" value="nee" style="text;html=1;align=center;verticalAlign=middle;resizable=0;points=[];autosize=1;strokeColor=none;fillColor=none;" parent="1" vertex="1">
          <mxGeometry x="160" y="690" width="40" height="30" as="geometry" />
        </mxCell>
        <mxCell id="7dV71E5InsnMOGekvMBD-135" value="Ik ben bang dat, als ik slecht presteer, ik mensen teleurstel.&lt;br&gt;(5)" style="whiteSpace=wrap;html=1;aspect=fixed;" parent="1" vertex="1">
          <mxGeometry x="240" y="795" width="100" height="100" as="geometry" />
        </mxCell>
        <mxCell id="7dV71E5InsnMOGekvMBD-136" value="Als ik slecht presteer houden anderen nog net zoveel van me als daarvoor.&amp;nbsp;&lt;br&gt;(14)" style="whiteSpace=wrap;html=1;aspect=fixed;" parent="1" vertex="1">
          <mxGeometry x="690" y="800" width="100" height="100" as="geometry" />
        </mxCell>
        <mxCell id="7dV71E5InsnMOGekvMBD-139" value="Als ik een slecht cijfer haal vinden mensen mij nog net zo leuk als daarvoor.&amp;nbsp;&lt;br&gt;(23)" style="whiteSpace=wrap;html=1;aspect=fixed;" parent="1" vertex="1">
          <mxGeometry x="535" y="930" width="100" height="100" as="geometry" />
        </mxCell>
        <mxCell id="7dV71E5InsnMOGekvMBD-140" value="Ik ben bang dat anderen me dom vinden als ik slecht presteer.&lt;br&gt;(24)" style="whiteSpace=wrap;html=1;aspect=fixed;" parent="1" vertex="1">
          <mxGeometry x="540" y="802.5" width="90" height="90" as="geometry" />
        </mxCell>
        <mxCell id="7dV71E5InsnMOGekvMBD-141" value="Haal ik een slecht cijfer dan maak ik me zorgen over mijn toekomstplannen.&amp;nbsp;&lt;br&gt;(25)" style="whiteSpace=wrap;html=1;aspect=fixed;" parent="1" vertex="1">
          <mxGeometry x="590" y="1169" width="110" height="110" as="geometry" />
        </mxCell>
        <mxCell id="7dV71E5InsnMOGekvMBD-142" value="Ik moet van mezelf goede cijfers halen.&lt;br&gt;(46)&amp;nbsp;" style="whiteSpace=wrap;html=1;aspect=fixed;" parent="1" vertex="1">
          <mxGeometry x="430" y="1093.75" width="80" height="80" as="geometry" />
        </mxCell>
        <mxCell id="7dV71E5InsnMOGekvMBD-143" value="Als ik een fout maak waar andere bij zijn schaam ik me.&amp;nbsp;&lt;br&gt;(50)" style="whiteSpace=wrap;html=1;aspect=fixed;" parent="1" vertex="1">
          <mxGeometry x="400" y="802.5" width="85" height="85" as="geometry" />
        </mxCell>
        <mxCell id="7dV71E5InsnMOGekvMBD-144" value="Als het gaat om mijn studie, stel ik hoge eisen aan mezelf.&lt;br&gt;(19)&amp;nbsp;" style="whiteSpace=wrap;html=1;aspect=fixed;" parent="1" vertex="1">
          <mxGeometry x="265" y="1087.5" width="92.5" height="92.5" as="geometry" />
        </mxCell>
        <mxCell id="7dV71E5InsnMOGekvMBD-146" value="Fouten &lt;br&gt;maken is niet erg.&amp;nbsp;&lt;br style=&quot;border-color: var(--border-color);&quot;&gt;(20)" style="rhombus;whiteSpace=wrap;html=1;" parent="1" vertex="1">
          <mxGeometry x="150" y="970" width="95" height="100" as="geometry" />
        </mxCell>
        <mxCell id="7dV71E5InsnMOGekvMBD-147" value="" style="endArrow=classic;html=1;rounded=0;entryX=0;entryY=0.5;entryDx=0;entryDy=0;" parent="1" target="7dV71E5InsnMOGekvMBD-135" edge="1">
          <mxGeometry width="50" height="50" relative="1" as="geometry">
            <mxPoint x="200" y="845" as="sourcePoint" />
            <mxPoint x="250" y="795" as="targetPoint" />
          </mxGeometry>
        </mxCell>
        <mxCell id="7dV71E5InsnMOGekvMBD-148" value="" style="endArrow=classic;html=1;rounded=0;" parent="1" edge="1">
          <mxGeometry width="50" height="50" relative="1" as="geometry">
            <mxPoint x="340" y="855" as="sourcePoint" />
            <mxPoint x="390" y="855" as="targetPoint" />
          </mxGeometry>
        </mxCell>
        <mxCell id="7dV71E5InsnMOGekvMBD-149" value="" style="endArrow=classic;html=1;rounded=0;" parent="1" edge="1">
          <mxGeometry width="50" height="50" relative="1" as="geometry">
            <mxPoint x="485" y="860" as="sourcePoint" />
            <mxPoint x="530" y="860" as="targetPoint" />
          </mxGeometry>
        </mxCell>
        <mxCell id="7dV71E5InsnMOGekvMBD-151" value="" style="endArrow=classic;html=1;rounded=0;" parent="1" edge="1">
          <mxGeometry width="50" height="50" relative="1" as="geometry">
            <mxPoint x="630" y="860" as="sourcePoint" />
            <mxPoint x="680" y="860" as="targetPoint" />
          </mxGeometry>
        </mxCell>
        <mxCell id="7dV71E5InsnMOGekvMBD-152" value="" style="endArrow=classic;html=1;rounded=0;" parent="1" edge="1">
          <mxGeometry width="50" height="50" relative="1" as="geometry">
            <mxPoint x="680" y="900" as="sourcePoint" />
            <mxPoint x="640" y="930" as="targetPoint" />
          </mxGeometry>
        </mxCell>
        <mxCell id="7dV71E5InsnMOGekvMBD-153" value="" style="endArrow=classic;html=1;rounded=0;entryX=0.5;entryY=0;entryDx=0;entryDy=0;" parent="1" target="7dV71E5InsnMOGekvMBD-146" edge="1">
          <mxGeometry width="50" height="50" relative="1" as="geometry">
            <mxPoint x="530" y="940" as="sourcePoint" />
            <mxPoint x="460" y="950" as="targetPoint" />
          </mxGeometry>
        </mxCell>
        <mxCell id="7dV71E5InsnMOGekvMBD-154" value="" style="endArrow=classic;html=1;rounded=0;entryX=0.412;entryY=0.024;entryDx=0;entryDy=0;entryPerimeter=0;" parent="1" target="7dV71E5InsnMOGekvMBD-146" edge="1">
          <mxGeometry width="50" height="50" relative="1" as="geometry">
            <mxPoint x="145" y="910" as="sourcePoint" />
            <mxPoint x="200" y="970" as="targetPoint" />
          </mxGeometry>
        </mxCell>
        <mxCell id="7dV71E5InsnMOGekvMBD-155" value="Ik maak &lt;br&gt;me weinig &lt;br&gt;zorgen over&lt;br&gt;&amp;nbsp;mijn studie.&amp;nbsp;&lt;br style=&quot;border-color: var(--border-color);&quot;&gt;(26)" style="rhombus;whiteSpace=wrap;html=1;" parent="1" vertex="1">
          <mxGeometry x="75" y="1110" width="110" height="100" as="geometry" />
        </mxCell>
        <mxCell id="7dV71E5InsnMOGekvMBD-156" value="" style="endArrow=classic;html=1;rounded=0;" parent="1" edge="1">
          <mxGeometry width="50" height="50" relative="1" as="geometry">
            <mxPoint x="170" y="1150" as="sourcePoint" />
            <mxPoint x="260" y="1140" as="targetPoint" />
          </mxGeometry>
        </mxCell>
        <mxCell id="7dV71E5InsnMOGekvMBD-157" value="" style="endArrow=classic;html=1;rounded=0;entryX=0;entryY=0;entryDx=0;entryDy=0;" parent="1" target="7dV71E5InsnMOGekvMBD-144" edge="1">
          <mxGeometry width="50" height="50" relative="1" as="geometry">
            <mxPoint x="215" y="1050" as="sourcePoint" />
            <mxPoint x="265" y="1000" as="targetPoint" />
          </mxGeometry>
        </mxCell>
        <mxCell id="7dV71E5InsnMOGekvMBD-158" value="" style="endArrow=classic;html=1;rounded=0;entryX=0.5;entryY=0;entryDx=0;entryDy=0;exitX=0.371;exitY=0.901;exitDx=0;exitDy=0;exitPerimeter=0;" parent="1" source="7dV71E5InsnMOGekvMBD-146" target="7dV71E5InsnMOGekvMBD-155" edge="1">
          <mxGeometry width="50" height="50" relative="1" as="geometry">
            <mxPoint x="165" y="1060" as="sourcePoint" />
            <mxPoint x="215" y="1010" as="targetPoint" />
          </mxGeometry>
        </mxCell>
        <mxCell id="7dV71E5InsnMOGekvMBD-159" value="" style="endArrow=classic;html=1;rounded=0;" parent="1" edge="1">
          <mxGeometry width="50" height="50" relative="1" as="geometry">
            <mxPoint x="360" y="1137.5" as="sourcePoint" />
            <mxPoint x="420" y="1138" as="targetPoint" />
          </mxGeometry>
        </mxCell>
        <mxCell id="7dV71E5InsnMOGekvMBD-160" value="" style="endArrow=classic;html=1;rounded=0;" parent="1" edge="1">
          <mxGeometry width="50" height="50" relative="1" as="geometry">
            <mxPoint x="510" y="1150" as="sourcePoint" />
            <mxPoint x="580" y="1180" as="targetPoint" />
          </mxGeometry>
        </mxCell>
        <mxCell id="7dV71E5InsnMOGekvMBD-161" value="Ik &lt;br&gt;voel&amp;nbsp;me &lt;br&gt;zelfverzekerd over mijn capaciteiten&lt;br style=&quot;border-color: var(--border-color);&quot;&gt;(10)" style="rhombus;whiteSpace=wrap;html=1;" parent="1" vertex="1">
          <mxGeometry x="30" y="1300" width="100" height="120" as="geometry" />
        </mxCell>
        <mxCell id="7dV71E5InsnMOGekvMBD-162" value="ja" style="text;html=1;align=center;verticalAlign=middle;resizable=0;points=[];autosize=1;strokeColor=none;fillColor=none;" parent="1" vertex="1">
          <mxGeometry x="195" y="818" width="30" height="30" as="geometry" />
        </mxCell>
        <mxCell id="7dV71E5InsnMOGekvMBD-163" value="nee" style="text;html=1;align=center;verticalAlign=middle;resizable=0;points=[];autosize=1;strokeColor=none;fillColor=none;" parent="1" vertex="1">
          <mxGeometry x="120" y="918" width="40" height="30" as="geometry" />
        </mxCell>
        <mxCell id="7dV71E5InsnMOGekvMBD-164" value="nee" style="text;html=1;align=center;verticalAlign=middle;resizable=0;points=[];autosize=1;strokeColor=none;fillColor=none;" parent="1" vertex="1">
          <mxGeometry x="210" y="1058" width="40" height="30" as="geometry" />
        </mxCell>
        <mxCell id="7dV71E5InsnMOGekvMBD-165" value="ja" style="text;html=1;align=center;verticalAlign=middle;resizable=0;points=[];autosize=1;strokeColor=none;fillColor=none;" parent="1" vertex="1">
          <mxGeometry x="125" y="1068" width="30" height="30" as="geometry" />
        </mxCell>
        <mxCell id="7dV71E5InsnMOGekvMBD-168" value="" style="endArrow=classic;html=1;rounded=0;entryX=0.5;entryY=0;entryDx=0;entryDy=0;exitX=0.386;exitY=0.928;exitDx=0;exitDy=0;exitPerimeter=0;" parent="1" source="7dV71E5InsnMOGekvMBD-155" target="7dV71E5InsnMOGekvMBD-161" edge="1">
          <mxGeometry width="50" height="50" relative="1" as="geometry">
            <mxPoint x="105" y="1210" as="sourcePoint" />
            <mxPoint x="155" y="1160" as="targetPoint" />
          </mxGeometry>
        </mxCell>
        <mxCell id="7dV71E5InsnMOGekvMBD-169" value="ja" style="text;html=1;align=center;verticalAlign=middle;resizable=0;points=[];autosize=1;strokeColor=none;fillColor=none;" parent="1" vertex="1">
          <mxGeometry x="60" y="1209" width="30" height="30" as="geometry" />
        </mxCell>
        <mxCell id="7dV71E5InsnMOGekvMBD-170" value="nee" style="text;html=1;align=center;verticalAlign=middle;resizable=0;points=[];autosize=1;strokeColor=none;fillColor=none;" parent="1" vertex="1">
          <mxGeometry x="190" y="1143.75" width="40" height="30" as="geometry" />
        </mxCell>
        <mxCell id="7dV71E5InsnMOGekvMBD-171" value="" style="endArrow=classic;html=1;rounded=0;exitX=-0.025;exitY=0.453;exitDx=0;exitDy=0;exitPerimeter=0;entryX=1;entryY=0;entryDx=0;entryDy=0;" parent="1" source="7dV71E5InsnMOGekvMBD-141" target="7dV71E5InsnMOGekvMBD-161" edge="1">
          <mxGeometry width="50" height="50" relative="1" as="geometry">
            <mxPoint x="340" y="1410" as="sourcePoint" />
            <mxPoint x="390" y="1360" as="targetPoint" />
          </mxGeometry>
        </mxCell>
        <mxCell id="7dV71E5InsnMOGekvMBD-173" value="Ik weet zeker dat ik slim genoeg ben om deze studie te doen.&lt;br&gt;(30)" style="whiteSpace=wrap;html=1;aspect=fixed;" parent="1" vertex="1">
          <mxGeometry x="220" y="1315" width="90" height="90" as="geometry" />
        </mxCell>
        <mxCell id="7dV71E5InsnMOGekvMBD-174" value="Ik denk dat mensen in het algemeen een positief beeld van mij hebben.&lt;br&gt;(56)" style="whiteSpace=wrap;html=1;aspect=fixed;" parent="1" vertex="1">
          <mxGeometry x="250" y="1465" width="90" height="90" as="geometry" />
        </mxCell>
        <mxCell id="7dV71E5InsnMOGekvMBD-176" value="" style="endArrow=classic;html=1;rounded=0;" parent="1" edge="1">
          <mxGeometry width="50" height="50" relative="1" as="geometry">
            <mxPoint x="130" y="1365" as="sourcePoint" />
            <mxPoint x="210" y="1370" as="targetPoint" />
          </mxGeometry>
        </mxCell>
        <mxCell id="7dV71E5InsnMOGekvMBD-177" value="" style="endArrow=classic;html=1;rounded=0;exitX=0.5;exitY=1;exitDx=0;exitDy=0;" parent="1" source="7dV71E5InsnMOGekvMBD-161" target="7dV71E5InsnMOGekvMBD-178" edge="1">
          <mxGeometry width="50" height="50" relative="1" as="geometry">
            <mxPoint x="80" y="1430" as="sourcePoint" />
            <mxPoint x="90" y="1460" as="targetPoint" />
          </mxGeometry>
        </mxCell>
        <mxCell id="7dV71E5InsnMOGekvMBD-178" value="Ik voel me onzeker over mezelf.&lt;br style=&quot;border-color: var(--border-color);&quot;&gt;(52)" style="rhombus;whiteSpace=wrap;html=1;" parent="1" vertex="1">
          <mxGeometry x="70" y="1465" width="100" height="100" as="geometry" />
        </mxCell>
        <mxCell id="7dV71E5InsnMOGekvMBD-179" value="" style="endArrow=classic;html=1;rounded=0;exitX=0.005;exitY=0.851;exitDx=0;exitDy=0;exitPerimeter=0;entryX=0.5;entryY=0;entryDx=0;entryDy=0;" parent="1" source="7dV71E5InsnMOGekvMBD-173" target="7dV71E5InsnMOGekvMBD-178" edge="1">
          <mxGeometry width="50" height="50" relative="1" as="geometry">
            <mxPoint x="210" y="1420" as="sourcePoint" />
            <mxPoint x="260" y="1370" as="targetPoint" />
          </mxGeometry>
        </mxCell>
        <mxCell id="7dV71E5InsnMOGekvMBD-180" value="nee" style="text;html=1;align=center;verticalAlign=middle;resizable=0;points=[];autosize=1;strokeColor=none;fillColor=none;" parent="1" vertex="1">
          <mxGeometry x="127.5" y="1358" width="40" height="30" as="geometry" />
        </mxCell>
        <mxCell id="7dV71E5InsnMOGekvMBD-181" value="ja" style="text;html=1;align=center;verticalAlign=middle;resizable=0;points=[];autosize=1;strokeColor=none;fillColor=none;" parent="1" vertex="1">
          <mxGeometry x="55" y="1418" width="30" height="30" as="geometry" />
        </mxCell>
        <mxCell id="7dV71E5InsnMOGekvMBD-182" value="" style="endArrow=classic;html=1;rounded=0;" parent="1" edge="1">
          <mxGeometry width="50" height="50" relative="1" as="geometry">
            <mxPoint x="170" y="1515" as="sourcePoint" />
            <mxPoint x="240" y="1520" as="targetPoint" />
          </mxGeometry>
        </mxCell>
        <mxCell id="7dV71E5InsnMOGekvMBD-183" value="ja" style="text;html=1;align=center;verticalAlign=middle;resizable=0;points=[];autosize=1;strokeColor=none;fillColor=none;" parent="1" vertex="1">
          <mxGeometry x="175" y="1488" width="30" height="30" as="geometry" />
        </mxCell>
        <mxCell id="7dV71E5InsnMOGekvMBD-184" value="" style="endArrow=classic;html=1;rounded=0;entryX=0.5;entryY=0;entryDx=0;entryDy=0;" parent="1" target="7dV71E5InsnMOGekvMBD-186" edge="1">
          <mxGeometry width="50" height="50" relative="1" as="geometry">
            <mxPoint x="120" y="1565" as="sourcePoint" />
            <mxPoint x="80" y="1635" as="targetPoint" />
          </mxGeometry>
        </mxCell>
        <mxCell id="7dV71E5InsnMOGekvMBD-185" value="nee" style="text;html=1;align=center;verticalAlign=middle;resizable=0;points=[];autosize=1;strokeColor=none;fillColor=none;" parent="1" vertex="1">
          <mxGeometry x="70" y="1578" width="40" height="30" as="geometry" />
        </mxCell>
        <mxCell id="7dV71E5InsnMOGekvMBD-186" value="In een &lt;br&gt;groep houd &lt;br&gt;ik me op de achtergrond.&lt;br style=&quot;border-color: var(--border-color);&quot;&gt;(41)" style="rhombus;whiteSpace=wrap;html=1;" parent="1" vertex="1">
          <mxGeometry x="15" y="1650" width="105" height="110" as="geometry" />
        </mxCell>
        <mxCell id="7dV71E5InsnMOGekvMBD-187" value="" style="endArrow=classic;html=1;rounded=0;" parent="1" target="7dV71E5InsnMOGekvMBD-186" edge="1">
          <mxGeometry width="50" height="50" relative="1" as="geometry">
            <mxPoint x="240" y="1555" as="sourcePoint" />
            <mxPoint x="290" y="1505" as="targetPoint" />
          </mxGeometry>
        </mxCell>
        <mxCell id="7dV71E5InsnMOGekvMBD-188" value="Ik wacht meestal tot andere mensen mij aanspreken.&lt;br&gt;(22)" style="whiteSpace=wrap;html=1;aspect=fixed;" parent="1" vertex="1">
          <mxGeometry x="180" y="1730" width="90" height="90" as="geometry" />
        </mxCell>
        <mxCell id="D0bcgHaPjHYOl8WKYE3j-1" value="" style="edgeStyle=none;curved=1;rounded=0;orthogonalLoop=1;jettySize=auto;html=1;fontSize=12;startSize=8;endSize=8;" parent="1" source="7dV71E5InsnMOGekvMBD-190" target="7dV71E5InsnMOGekvMBD-201" edge="1">
          <mxGeometry relative="1" as="geometry">
            <Array as="points">
              <mxPoint x="350" y="1900" />
            </Array>
          </mxGeometry>
        </mxCell>
        <mxCell id="7dV71E5InsnMOGekvMBD-190" value="Ik ga liever niet naar&amp;nbsp; sociale bijeenkomsten, zoals feestjes of vergaderingen.&lt;br&gt;(48)&amp;nbsp;" style="whiteSpace=wrap;html=1;aspect=fixed;" parent="1" vertex="1">
          <mxGeometry x="360" y="1800" width="95" height="95" as="geometry" />
        </mxCell>
        <mxCell id="7dV71E5InsnMOGekvMBD-191" value="" style="endArrow=classic;html=1;rounded=0;" parent="1" edge="1">
          <mxGeometry width="50" height="50" relative="1" as="geometry">
            <mxPoint x="95" y="1730" as="sourcePoint" />
            <mxPoint x="170" y="1760" as="targetPoint" />
          </mxGeometry>
        </mxCell>
        <mxCell id="7dV71E5InsnMOGekvMBD-192" value="" style="endArrow=classic;html=1;rounded=0;" parent="1" edge="1">
          <mxGeometry width="50" height="50" relative="1" as="geometry">
            <mxPoint x="270" y="1779" as="sourcePoint" />
            <mxPoint x="350" y="1810" as="targetPoint" />
          </mxGeometry>
        </mxCell>
        <mxCell id="7dV71E5InsnMOGekvMBD-193" value="" style="endArrow=classic;html=1;rounded=0;" parent="1" target="7dV71E5InsnMOGekvMBD-201" edge="1">
          <mxGeometry width="50" height="50" relative="1" as="geometry">
            <mxPoint x="65" y="1760" as="sourcePoint" />
            <mxPoint x="40" y="1840" as="targetPoint" />
          </mxGeometry>
        </mxCell>
        <mxCell id="7dV71E5InsnMOGekvMBD-194" value="ja" style="text;html=1;align=center;verticalAlign=middle;resizable=0;points=[];autosize=1;strokeColor=none;fillColor=none;" parent="1" vertex="1">
          <mxGeometry x="115" y="1718" width="30" height="30" as="geometry" />
        </mxCell>
        <mxCell id="7dV71E5InsnMOGekvMBD-195" value="nee" style="text;html=1;align=center;verticalAlign=middle;resizable=0;points=[];autosize=1;strokeColor=none;fillColor=none;" parent="1" vertex="1">
          <mxGeometry x="35" y="1790" width="40" height="30" as="geometry" />
        </mxCell>
        <mxCell id="7dV71E5InsnMOGekvMBD-196" value="Als ik een slecht cijfer haal voel ik me waardeloos.&amp;nbsp;&lt;br&gt;(8)" style="whiteSpace=wrap;html=1;aspect=fixed;" parent="1" vertex="1">
          <mxGeometry x="250" y="1970" width="80" height="80" as="geometry" />
        </mxCell>
        <mxCell id="7dV71E5InsnMOGekvMBD-197" value="Als ik een onvoldoende haal, voel ik me dom&lt;br&gt;(9)" style="whiteSpace=wrap;html=1;aspect=fixed;" parent="1" vertex="1">
          <mxGeometry x="420" y="1970" width="80" height="80" as="geometry" />
        </mxCell>
        <mxCell id="7dV71E5InsnMOGekvMBD-200" value="Ik schaam me voor slechte cijfers.&lt;br&gt;(58)" style="whiteSpace=wrap;html=1;aspect=fixed;" parent="1" vertex="1">
          <mxGeometry x="610" y="1970" width="80" height="80" as="geometry" />
        </mxCell>
        <mxCell id="7dV71E5InsnMOGekvMBD-201" value="Ook als&lt;br&gt;&amp;nbsp;ik &lt;br&gt;een slecht &lt;br&gt;cijfer&lt;br&gt;&amp;nbsp;haal, voel ik &lt;br&gt;me goed over &lt;br&gt;mezelf&lt;br style=&quot;border-color: var(--border-color);&quot;&gt;(39)" style="rhombus;whiteSpace=wrap;html=1;" parent="1" vertex="1">
          <mxGeometry x="7.5" y="1840" width="162.5" height="140" as="geometry" />
        </mxCell>
        <mxCell id="7dV71E5InsnMOGekvMBD-202" value="Als ik niet &lt;br&gt;goed presteer, &lt;br&gt;kraak ik mezelf af.&lt;br style=&quot;border-color: var(--border-color);&quot;&gt;(49)" style="rhombus;whiteSpace=wrap;html=1;" parent="1" vertex="1">
          <mxGeometry x="55" y="2040" width="120" height="130" as="geometry" />
        </mxCell>
        <mxCell id="7dV71E5InsnMOGekvMBD-203" value="" style="endArrow=classic;html=1;rounded=0;" parent="1" edge="1">
          <mxGeometry width="50" height="50" relative="1" as="geometry">
            <mxPoint x="117.5" y="1960" as="sourcePoint" />
            <mxPoint x="240" y="2000" as="targetPoint" />
          </mxGeometry>
        </mxCell>
        <mxCell id="7dV71E5InsnMOGekvMBD-204" value="" style="endArrow=classic;html=1;rounded=0;exitX=0.5;exitY=1;exitDx=0;exitDy=0;" parent="1" source="7dV71E5InsnMOGekvMBD-201" target="7dV71E5InsnMOGekvMBD-202" edge="1">
          <mxGeometry width="50" height="50" relative="1" as="geometry">
            <mxPoint x="85" y="1990" as="sourcePoint" />
            <mxPoint x="135" y="1940" as="targetPoint" />
          </mxGeometry>
        </mxCell>
        <mxCell id="7dV71E5InsnMOGekvMBD-205" value="" style="endArrow=classic;html=1;rounded=0;" parent="1" edge="1">
          <mxGeometry width="50" height="50" relative="1" as="geometry">
            <mxPoint x="330" y="2000" as="sourcePoint" />
            <mxPoint x="410" y="2000" as="targetPoint" />
          </mxGeometry>
        </mxCell>
        <mxCell id="7dV71E5InsnMOGekvMBD-206" value="" style="endArrow=classic;html=1;rounded=0;" parent="1" edge="1">
          <mxGeometry width="50" height="50" relative="1" as="geometry">
            <mxPoint x="500" y="2010" as="sourcePoint" />
            <mxPoint x="600" y="2010" as="targetPoint" />
          </mxGeometry>
        </mxCell>
        <mxCell id="7dV71E5InsnMOGekvMBD-207" value="" style="endArrow=classic;html=1;rounded=0;entryX=0;entryY=1;entryDx=0;entryDy=0;" parent="1" target="7dV71E5InsnMOGekvMBD-196" edge="1">
          <mxGeometry width="50" height="50" relative="1" as="geometry">
            <mxPoint x="170" y="2100" as="sourcePoint" />
            <mxPoint x="220" y="2050" as="targetPoint" />
          </mxGeometry>
        </mxCell>
        <mxCell id="7dV71E5InsnMOGekvMBD-208" value="&lt;font color=&quot;#ffffff&quot;&gt;Einde&lt;/font&gt;" style="ellipse;whiteSpace=wrap;html=1;aspect=fixed;fillColor=#000000;" parent="1" vertex="1">
          <mxGeometry x="490" y="2200" width="80" height="80" as="geometry" />
        </mxCell>
        <mxCell id="7dV71E5InsnMOGekvMBD-209" value="" style="endArrow=classic;html=1;rounded=0;entryX=0.5;entryY=0;entryDx=0;entryDy=0;" parent="1" target="7dV71E5InsnMOGekvMBD-208" edge="1">
          <mxGeometry width="50" height="50" relative="1" as="geometry">
            <mxPoint x="625" y="2050" as="sourcePoint" />
            <mxPoint x="675" y="2000" as="targetPoint" />
          </mxGeometry>
        </mxCell>
        <mxCell id="7dV71E5InsnMOGekvMBD-210" value="" style="endArrow=classic;html=1;rounded=0;entryX=-0.042;entryY=0.434;entryDx=0;entryDy=0;entryPerimeter=0;" parent="1" target="7dV71E5InsnMOGekvMBD-208" edge="1">
          <mxGeometry width="50" height="50" relative="1" as="geometry">
            <mxPoint x="122.5" y="2160" as="sourcePoint" />
            <mxPoint x="480" y="2240" as="targetPoint" />
          </mxGeometry>
        </mxCell>
        <mxCell id="7dV71E5InsnMOGekvMBD-211" value="nee" style="text;html=1;align=center;verticalAlign=middle;resizable=0;points=[];autosize=1;strokeColor=none;fillColor=none;" parent="1" vertex="1">
          <mxGeometry x="150" y="1948" width="40" height="30" as="geometry" />
        </mxCell>
        <mxCell id="7dV71E5InsnMOGekvMBD-212" value="ja" style="text;html=1;align=center;verticalAlign=middle;resizable=0;points=[];autosize=1;strokeColor=none;fillColor=none;" parent="1" vertex="1">
          <mxGeometry x="65" y="1998" width="30" height="30" as="geometry" />
        </mxCell>
        <mxCell id="7dV71E5InsnMOGekvMBD-213" value="ja" style="text;html=1;align=center;verticalAlign=middle;resizable=0;points=[];autosize=1;strokeColor=none;fillColor=none;" parent="1" vertex="1">
          <mxGeometry x="175" y="2058" width="30" height="30" as="geometry" />
        </mxCell>
        <mxCell id="7dV71E5InsnMOGekvMBD-214" value="nee" style="text;html=1;align=center;verticalAlign=middle;resizable=0;points=[];autosize=1;strokeColor=none;fillColor=none;" parent="1" vertex="1">
          <mxGeometry x="150" y="2148" width="40" height="30" as="geometry" />
        </mxCell>
        <mxCell id="7dV71E5InsnMOGekvMBD-215" value="Wat is je leeftijd?&amp;nbsp;" style="whiteSpace=wrap;html=1;aspect=fixed;" parent="1" vertex="1">
          <mxGeometry x="165" y="-1260" width="80" height="80" as="geometry" />
        </mxCell>
        <mxCell id="7dV71E5InsnMOGekvMBD-216" value="wat is je geslacht?&amp;nbsp;" style="whiteSpace=wrap;html=1;aspect=fixed;" parent="1" vertex="1">
          <mxGeometry x="315" y="-1255" width="80" height="80" as="geometry" />
        </mxCell>
        <mxCell id="7dV71E5InsnMOGekvMBD-218" value="welk opleidingsniveau doe je?&amp;nbsp;" style="whiteSpace=wrap;html=1;aspect=fixed;" parent="1" vertex="1">
          <mxGeometry x="455" y="-1262.5" width="95" height="95" as="geometry" />
        </mxCell>
        <mxCell id="7dV71E5InsnMOGekvMBD-220" value="" style="endArrow=classic;html=1;rounded=0;" parent="1" edge="1">
          <mxGeometry width="50" height="50" relative="1" as="geometry">
            <mxPoint x="105" y="-1220" as="sourcePoint" />
            <mxPoint x="160" y="-1219.5" as="targetPoint" />
          </mxGeometry>
        </mxCell>
        <mxCell id="7dV71E5InsnMOGekvMBD-221" value="" style="endArrow=classic;html=1;rounded=0;" parent="1" edge="1">
          <mxGeometry width="50" height="50" relative="1" as="geometry">
            <mxPoint x="242.5" y="-1220.43" as="sourcePoint" />
            <mxPoint x="317.5" y="-1220.43" as="targetPoint" />
          </mxGeometry>
        </mxCell>
        <mxCell id="7dV71E5InsnMOGekvMBD-222" value="" style="endArrow=classic;html=1;rounded=0;" parent="1" edge="1">
          <mxGeometry width="50" height="50" relative="1" as="geometry">
            <mxPoint x="397.5" y="-1220" as="sourcePoint" />
            <mxPoint x="455" y="-1220" as="targetPoint" />
          </mxGeometry>
        </mxCell>
        <mxCell id="t_rcGNQdWhGDOgz_yuid-1" value="1" style="text;html=1;align=center;verticalAlign=middle;resizable=0;points=[];autosize=1;strokeColor=none;fillColor=none;" parent="1" vertex="1">
          <mxGeometry x="185" y="-1312" width="30" height="30" as="geometry" />
        </mxCell>
        <mxCell id="t_rcGNQdWhGDOgz_yuid-2" value="2" style="text;html=1;align=center;verticalAlign=middle;resizable=0;points=[];autosize=1;strokeColor=none;fillColor=none;" parent="1" vertex="1">
          <mxGeometry x="335" y="-1302" width="30" height="30" as="geometry" />
        </mxCell>
        <mxCell id="t_rcGNQdWhGDOgz_yuid-3" value="3" style="text;html=1;align=center;verticalAlign=middle;resizable=0;points=[];autosize=1;strokeColor=none;fillColor=none;" parent="1" vertex="1">
          <mxGeometry x="475" y="-1312" width="30" height="30" as="geometry" />
        </mxCell>
        <mxCell id="t_rcGNQdWhGDOgz_yuid-4" value="4" style="text;html=1;align=center;verticalAlign=middle;resizable=0;points=[];autosize=1;strokeColor=none;fillColor=none;" parent="1" vertex="1">
          <mxGeometry x="185" y="-1142" width="30" height="30" as="geometry" />
        </mxCell>
        <mxCell id="t_rcGNQdWhGDOgz_yuid-5" value="5" style="text;html=1;align=center;verticalAlign=middle;resizable=0;points=[];autosize=1;strokeColor=none;fillColor=none;" parent="1" vertex="1">
          <mxGeometry x="455" y="-1152" width="30" height="30" as="geometry" />
        </mxCell>
        <mxCell id="t_rcGNQdWhGDOgz_yuid-6" value="6" style="text;html=1;align=center;verticalAlign=middle;resizable=0;points=[];autosize=1;strokeColor=none;fillColor=none;" parent="1" vertex="1">
          <mxGeometry x="615" y="-1152" width="30" height="30" as="geometry" />
        </mxCell>
        <mxCell id="t_rcGNQdWhGDOgz_yuid-7" value="7" style="whiteSpace=wrap;html=1;" parent="1" vertex="1">
          <mxGeometry x="710" y="-1090" width="120" height="60" as="geometry" />
        </mxCell>
        <mxCell id="t_rcGNQdWhGDOgz_yuid-8" value="8" style="text;html=1;align=center;verticalAlign=middle;resizable=0;points=[];autosize=1;strokeColor=none;fillColor=none;" parent="1" vertex="1">
          <mxGeometry x="15" y="-1012" width="30" height="30" as="geometry" />
        </mxCell>
        <mxCell id="t_rcGNQdWhGDOgz_yuid-9" value="9" style="text;html=1;align=center;verticalAlign=middle;resizable=0;points=[];autosize=1;strokeColor=none;fillColor=none;" parent="1" vertex="1">
          <mxGeometry x="255" y="-962" width="30" height="30" as="geometry" />
        </mxCell>
        <mxCell id="t_rcGNQdWhGDOgz_yuid-10" value="10" style="text;html=1;align=center;verticalAlign=middle;resizable=0;points=[];autosize=1;strokeColor=none;fillColor=none;" parent="1" vertex="1">
          <mxGeometry x="380" y="-932" width="40" height="30" as="geometry" />
        </mxCell>
        <mxCell id="t_rcGNQdWhGDOgz_yuid-11" value="11" style="text;html=1;align=center;verticalAlign=middle;resizable=0;points=[];autosize=1;strokeColor=none;fillColor=none;" parent="1" vertex="1">
          <mxGeometry x="480" y="-942" width="40" height="30" as="geometry" />
        </mxCell>
        <mxCell id="t_rcGNQdWhGDOgz_yuid-14" value="12" style="text;html=1;align=center;verticalAlign=middle;resizable=0;points=[];autosize=1;strokeColor=none;fillColor=none;" parent="1" vertex="1">
          <mxGeometry x="630" y="-942" width="40" height="30" as="geometry" />
        </mxCell>
        <mxCell id="t_rcGNQdWhGDOgz_yuid-15" value="13" style="text;html=1;align=center;verticalAlign=middle;resizable=0;points=[];autosize=1;strokeColor=none;fillColor=none;" parent="1" vertex="1">
          <mxGeometry x="690" y="-902" width="40" height="30" as="geometry" />
        </mxCell>
        <mxCell id="t_rcGNQdWhGDOgz_yuid-16" value="14" style="text;html=1;align=center;verticalAlign=middle;resizable=0;points=[];autosize=1;strokeColor=none;fillColor=none;" parent="1" vertex="1">
          <mxGeometry x="90" y="-722" width="40" height="30" as="geometry" />
        </mxCell>
        <mxCell id="t_rcGNQdWhGDOgz_yuid-17" value="15" style="text;html=1;align=center;verticalAlign=middle;resizable=0;points=[];autosize=1;strokeColor=none;fillColor=none;" parent="1" vertex="1">
          <mxGeometry x="390" y="-782" width="40" height="30" as="geometry" />
        </mxCell>
        <mxCell id="t_rcGNQdWhGDOgz_yuid-18" value="16" style="text;html=1;align=center;verticalAlign=middle;resizable=0;points=[];autosize=1;strokeColor=none;fillColor=none;" parent="1" vertex="1">
          <mxGeometry x="500" y="-782" width="40" height="30" as="geometry" />
        </mxCell>
        <mxCell id="t_rcGNQdWhGDOgz_yuid-19" value="17" style="text;html=1;align=center;verticalAlign=middle;resizable=0;points=[];autosize=1;strokeColor=none;fillColor=none;" parent="1" vertex="1">
          <mxGeometry x="690" y="-782" width="40" height="30" as="geometry" />
        </mxCell>
        <mxCell id="t_rcGNQdWhGDOgz_yuid-20" value="18" style="text;html=1;align=center;verticalAlign=middle;resizable=0;points=[];autosize=1;strokeColor=none;fillColor=none;" parent="1" vertex="1">
          <mxGeometry x="250" y="-592" width="40" height="30" as="geometry" />
        </mxCell>
        <mxCell id="t_rcGNQdWhGDOgz_yuid-21" value="19" style="text;html=1;align=center;verticalAlign=middle;resizable=0;points=[];autosize=1;strokeColor=none;fillColor=none;" parent="1" vertex="1">
          <mxGeometry x="460" y="-582" width="40" height="30" as="geometry" />
        </mxCell>
        <mxCell id="t_rcGNQdWhGDOgz_yuid-22" value="20" style="text;html=1;align=center;verticalAlign=middle;resizable=0;points=[];autosize=1;strokeColor=none;fillColor=none;" parent="1" vertex="1">
          <mxGeometry x="680" y="-582" width="40" height="30" as="geometry" />
        </mxCell>
        <mxCell id="t_rcGNQdWhGDOgz_yuid-23" value="21" style="text;html=1;align=center;verticalAlign=middle;resizable=0;points=[];autosize=1;strokeColor=none;fillColor=none;" parent="1" vertex="1">
          <mxGeometry x="30" y="-472" width="40" height="30" as="geometry" />
        </mxCell>
        <mxCell id="t_rcGNQdWhGDOgz_yuid-24" value="22" style="text;html=1;align=center;verticalAlign=middle;resizable=0;points=[];autosize=1;strokeColor=none;fillColor=none;" parent="1" vertex="1">
          <mxGeometry x="270" y="-482" width="40" height="30" as="geometry" />
        </mxCell>
        <mxCell id="t_rcGNQdWhGDOgz_yuid-25" value="23" style="text;html=1;align=center;verticalAlign=middle;resizable=0;points=[];autosize=1;strokeColor=none;fillColor=none;" parent="1" vertex="1">
          <mxGeometry x="420" y="-482" width="40" height="30" as="geometry" />
        </mxCell>
        <mxCell id="t_rcGNQdWhGDOgz_yuid-26" value="24" style="text;html=1;align=center;verticalAlign=middle;resizable=0;points=[];autosize=1;strokeColor=none;fillColor=none;" parent="1" vertex="1">
          <mxGeometry x="560" y="-502" width="40" height="30" as="geometry" />
        </mxCell>
        <mxCell id="t_rcGNQdWhGDOgz_yuid-27" value="25" style="text;html=1;align=center;verticalAlign=middle;resizable=0;points=[];autosize=1;strokeColor=none;fillColor=none;" parent="1" vertex="1">
          <mxGeometry x="740" y="-492" width="40" height="30" as="geometry" />
        </mxCell>
        <mxCell id="t_rcGNQdWhGDOgz_yuid-28" value="26" style="text;html=1;align=center;verticalAlign=middle;resizable=0;points=[];autosize=1;strokeColor=none;fillColor=none;" parent="1" vertex="1">
          <mxGeometry x="20" y="-252" width="40" height="30" as="geometry" />
        </mxCell>
        <mxCell id="t_rcGNQdWhGDOgz_yuid-29" value="27" style="text;html=1;align=center;verticalAlign=middle;resizable=0;points=[];autosize=1;strokeColor=none;fillColor=none;" parent="1" vertex="1">
          <mxGeometry x="290" y="-242" width="40" height="30" as="geometry" />
        </mxCell>
        <mxCell id="t_rcGNQdWhGDOgz_yuid-30" value="28" style="text;html=1;align=center;verticalAlign=middle;resizable=0;points=[];autosize=1;strokeColor=none;fillColor=none;" parent="1" vertex="1">
          <mxGeometry x="500" y="-252" width="40" height="30" as="geometry" />
        </mxCell>
        <mxCell id="t_rcGNQdWhGDOgz_yuid-31" value="29" style="text;html=1;align=center;verticalAlign=middle;resizable=0;points=[];autosize=1;strokeColor=none;fillColor=none;" parent="1" vertex="1">
          <mxGeometry x="660" y="-302" width="40" height="30" as="geometry" />
        </mxCell>
        <mxCell id="t_rcGNQdWhGDOgz_yuid-32" value="30" style="text;html=1;align=center;verticalAlign=middle;resizable=0;points=[];autosize=1;strokeColor=none;fillColor=none;" parent="1" vertex="1">
          <mxGeometry x="60" y="-42" width="40" height="30" as="geometry" />
        </mxCell>
        <mxCell id="t_rcGNQdWhGDOgz_yuid-33" value="31" style="text;html=1;align=center;verticalAlign=middle;resizable=0;points=[];autosize=1;strokeColor=none;fillColor=none;" parent="1" vertex="1">
          <mxGeometry x="300" y="-32" width="40" height="30" as="geometry" />
        </mxCell>
        <mxCell id="t_rcGNQdWhGDOgz_yuid-34" value="32" style="text;html=1;align=center;verticalAlign=middle;resizable=0;points=[];autosize=1;strokeColor=none;fillColor=none;" parent="1" vertex="1">
          <mxGeometry x="460" y="-42" width="40" height="30" as="geometry" />
        </mxCell>
        <mxCell id="t_rcGNQdWhGDOgz_yuid-35" value="33" style="text;html=1;align=center;verticalAlign=middle;resizable=0;points=[];autosize=1;strokeColor=none;fillColor=none;" parent="1" vertex="1">
          <mxGeometry x="590" y="-42" width="40" height="30" as="geometry" />
        </mxCell>
        <mxCell id="t_rcGNQdWhGDOgz_yuid-36" value="34" style="text;html=1;align=center;verticalAlign=middle;resizable=0;points=[];autosize=1;strokeColor=none;fillColor=none;" parent="1" vertex="1">
          <mxGeometry x="50" y="158" width="40" height="30" as="geometry" />
        </mxCell>
        <mxCell id="t_rcGNQdWhGDOgz_yuid-37" value="35" style="text;html=1;align=center;verticalAlign=middle;resizable=0;points=[];autosize=1;strokeColor=none;fillColor=none;" parent="1" vertex="1">
          <mxGeometry x="530" y="148" width="40" height="30" as="geometry" />
        </mxCell>
        <mxCell id="t_rcGNQdWhGDOgz_yuid-38" value="37" style="text;html=1;align=center;verticalAlign=middle;resizable=0;points=[];autosize=1;strokeColor=none;fillColor=none;" parent="1" vertex="1">
          <mxGeometry x="30" y="348" width="40" height="30" as="geometry" />
        </mxCell>
        <mxCell id="t_rcGNQdWhGDOgz_yuid-39" value="36" style="text;html=1;align=center;verticalAlign=middle;resizable=0;points=[];autosize=1;strokeColor=none;fillColor=none;" parent="1" vertex="1">
          <mxGeometry x="530" y="308" width="40" height="30" as="geometry" />
        </mxCell>
        <mxCell id="t_rcGNQdWhGDOgz_yuid-40" value="38" style="text;html=1;align=center;verticalAlign=middle;resizable=0;points=[];autosize=1;strokeColor=none;fillColor=none;" parent="1" vertex="1">
          <mxGeometry x="250" y="378" width="40" height="30" as="geometry" />
        </mxCell>
        <mxCell id="t_rcGNQdWhGDOgz_yuid-41" value="39" style="text;html=1;align=center;verticalAlign=middle;resizable=0;points=[];autosize=1;strokeColor=none;fillColor=none;" parent="1" vertex="1">
          <mxGeometry x="450" y="408" width="40" height="30" as="geometry" />
        </mxCell>
        <mxCell id="t_rcGNQdWhGDOgz_yuid-42" value="40" style="text;html=1;align=center;verticalAlign=middle;resizable=0;points=[];autosize=1;strokeColor=none;fillColor=none;" parent="1" vertex="1">
          <mxGeometry x="110" y="568" width="40" height="30" as="geometry" />
        </mxCell>
        <mxCell id="t_rcGNQdWhGDOgz_yuid-43" value="41" style="text;html=1;align=center;verticalAlign=middle;resizable=0;points=[];autosize=1;strokeColor=none;fillColor=none;" parent="1" vertex="1">
          <mxGeometry x="370" y="698" width="40" height="30" as="geometry" />
        </mxCell>
        <mxCell id="t_rcGNQdWhGDOgz_yuid-44" value="42" style="text;html=1;align=center;verticalAlign=middle;resizable=0;points=[];autosize=1;strokeColor=none;fillColor=none;" parent="1" vertex="1">
          <mxGeometry x="40" y="818" width="40" height="30" as="geometry" />
        </mxCell>
        <mxCell id="t_rcGNQdWhGDOgz_yuid-45" value="43" style="text;html=1;align=center;verticalAlign=middle;resizable=0;points=[];autosize=1;strokeColor=none;fillColor=none;" parent="1" vertex="1">
          <mxGeometry x="200" y="868" width="40" height="30" as="geometry" />
        </mxCell>
        <mxCell id="t_rcGNQdWhGDOgz_yuid-46" value="44" style="text;html=1;align=center;verticalAlign=middle;resizable=0;points=[];autosize=1;strokeColor=none;fillColor=none;" parent="1" vertex="1">
          <mxGeometry x="370" y="878" width="40" height="30" as="geometry" />
        </mxCell>
        <mxCell id="t_rcGNQdWhGDOgz_yuid-47" value="45" style="text;html=1;align=center;verticalAlign=middle;resizable=0;points=[];autosize=1;strokeColor=none;fillColor=none;" parent="1" vertex="1">
          <mxGeometry x="500" y="878" width="40" height="30" as="geometry" />
        </mxCell>
        <mxCell id="t_rcGNQdWhGDOgz_yuid-48" value="46" style="text;html=1;align=center;verticalAlign=middle;resizable=0;points=[];autosize=1;strokeColor=none;fillColor=none;" parent="1" vertex="1">
          <mxGeometry x="670" y="758" width="40" height="30" as="geometry" />
        </mxCell>
        <mxCell id="t_rcGNQdWhGDOgz_yuid-49" value="47" style="text;html=1;align=center;verticalAlign=middle;resizable=0;points=[];autosize=1;strokeColor=none;fillColor=none;" parent="1" vertex="1">
          <mxGeometry x="90" y="998" width="40" height="30" as="geometry" />
        </mxCell>
        <mxCell id="t_rcGNQdWhGDOgz_yuid-50" value="48" style="text;html=1;align=center;verticalAlign=middle;resizable=0;points=[];autosize=1;strokeColor=none;fillColor=none;" parent="1" vertex="1">
          <mxGeometry x="470" y="1008" width="40" height="30" as="geometry" />
        </mxCell>
        <mxCell id="t_rcGNQdWhGDOgz_yuid-51" value="49" style="text;html=1;align=center;verticalAlign=middle;resizable=0;points=[];autosize=1;strokeColor=none;fillColor=none;" parent="1" vertex="1">
          <mxGeometry x="40" y="1108" width="40" height="30" as="geometry" />
        </mxCell>
        <mxCell id="t_rcGNQdWhGDOgz_yuid-52" value="50" style="text;html=1;align=center;verticalAlign=middle;resizable=0;points=[];autosize=1;strokeColor=none;fillColor=none;" parent="1" vertex="1">
          <mxGeometry x="340" y="1028" width="40" height="30" as="geometry" />
        </mxCell>
        <mxCell id="t_rcGNQdWhGDOgz_yuid-53" value="51" style="text;html=1;align=center;verticalAlign=middle;resizable=0;points=[];autosize=1;strokeColor=none;fillColor=none;" parent="1" vertex="1">
          <mxGeometry x="520" y="1078" width="40" height="30" as="geometry" />
        </mxCell>
        <mxCell id="t_rcGNQdWhGDOgz_yuid-54" value="52" style="text;html=1;align=center;verticalAlign=middle;resizable=0;points=[];autosize=1;strokeColor=none;fillColor=none;" parent="1" vertex="1">
          <mxGeometry x="590" y="1298" width="40" height="30" as="geometry" />
        </mxCell>
        <mxCell id="t_rcGNQdWhGDOgz_yuid-55" value="53" style="text;html=1;align=center;verticalAlign=middle;resizable=0;points=[];autosize=1;strokeColor=none;fillColor=none;" parent="1" vertex="1">
          <mxGeometry x="10" y="1298" width="40" height="30" as="geometry" />
        </mxCell>
        <mxCell id="t_rcGNQdWhGDOgz_yuid-56" value="54" style="text;html=1;align=center;verticalAlign=middle;resizable=0;points=[];autosize=1;strokeColor=none;fillColor=none;" parent="1" vertex="1">
          <mxGeometry x="380" y="1348" width="40" height="30" as="geometry" />
        </mxCell>
        <mxCell id="t_rcGNQdWhGDOgz_yuid-57" value="55" style="text;html=1;align=center;verticalAlign=middle;resizable=0;points=[];autosize=1;strokeColor=none;fillColor=none;" parent="1" vertex="1">
          <mxGeometry x="10" y="1488" width="40" height="30" as="geometry" />
        </mxCell>
        <mxCell id="t_rcGNQdWhGDOgz_yuid-58" value="56" style="text;html=1;align=center;verticalAlign=middle;resizable=0;points=[];autosize=1;strokeColor=none;fillColor=none;" parent="1" vertex="1">
          <mxGeometry x="380" y="1508" width="40" height="30" as="geometry" />
        </mxCell>
        <mxCell id="t_rcGNQdWhGDOgz_yuid-59" value="57" style="text;html=1;align=center;verticalAlign=middle;resizable=0;points=[];autosize=1;strokeColor=none;fillColor=none;" parent="1" vertex="1">
          <mxGeometry x="120" y="1668" width="40" height="30" as="geometry" />
        </mxCell>
        <mxCell id="t_rcGNQdWhGDOgz_yuid-60" value="58" style="text;html=1;align=center;verticalAlign=middle;resizable=0;points=[];autosize=1;strokeColor=none;fillColor=none;" parent="1" vertex="1">
          <mxGeometry x="310" y="1728" width="40" height="30" as="geometry" />
        </mxCell>
        <mxCell id="t_rcGNQdWhGDOgz_yuid-61" value="59" style="text;html=1;align=center;verticalAlign=middle;resizable=0;points=[];autosize=1;strokeColor=none;fillColor=none;" parent="1" vertex="1">
          <mxGeometry x="480" y="1808" width="40" height="30" as="geometry" />
        </mxCell>
        <mxCell id="t_rcGNQdWhGDOgz_yuid-62" value="60" style="text;html=1;align=center;verticalAlign=middle;resizable=0;points=[];autosize=1;strokeColor=none;fillColor=none;" parent="1" vertex="1">
          <mxGeometry x="190" y="1888" width="40" height="30" as="geometry" />
        </mxCell>
        <mxCell id="t_rcGNQdWhGDOgz_yuid-63" value="61" style="text;html=1;align=center;verticalAlign=middle;resizable=0;points=[];autosize=1;strokeColor=none;fillColor=none;" parent="1" vertex="1">
          <mxGeometry x="350" y="1948" width="40" height="30" as="geometry" />
        </mxCell>
        <mxCell id="t_rcGNQdWhGDOgz_yuid-64" value="62" style="text;html=1;align=center;verticalAlign=middle;resizable=0;points=[];autosize=1;strokeColor=none;fillColor=none;" parent="1" vertex="1">
          <mxGeometry x="490" y="1938" width="40" height="30" as="geometry" />
        </mxCell>
        <mxCell id="t_rcGNQdWhGDOgz_yuid-65" value="63" style="text;html=1;align=center;verticalAlign=middle;resizable=0;points=[];autosize=1;strokeColor=none;fillColor=none;" parent="1" vertex="1">
          <mxGeometry x="650" y="1938" width="40" height="30" as="geometry" />
        </mxCell>
        <mxCell id="t_rcGNQdWhGDOgz_yuid-66" value="64" style="shape=tape;whiteSpace=wrap;html=1;" parent="1" vertex="1">
          <mxGeometry x="10" y="2140" width="120" height="100" as="geometry" />
        </mxCell>
      </root>
    </mxGraphModel>
  </diagram>
</mxfile>
